<mxfile host="app.diagrams.net" modified="2023-03-21T21:33:02.567Z" agent="5.0 (Windows NT 10.0; Win64; x64) AppleWebKit/537.36 (KHTML, like Gecko) Chrome/111.0.0.0 Safari/537.36" etag="Wm8FimOCyC_awFDQ7YAP" version="21.0.8" type="github">
  <diagram name="Страница 1" id="B-fDVC8iYzseoIeJ-J_j">
    <mxGraphModel dx="1531" dy="316" grid="1" gridSize="10" guides="1" tooltips="1" connect="1" arrows="1" fold="1" page="1" pageScale="1" pageWidth="827" pageHeight="1169" math="0" shadow="0">
      <root>
        <mxCell id="0" />
        <mxCell id="1" parent="0" />
        <mxCell id="ZGRNINhNJlQhkateeScL-3" value="ioc.core.ts" style="swimlane;whiteSpace=wrap;html=1;rounded=1;dashed=1;fillColor=#dae8fc;strokeColor=#6c8ebf;" vertex="1" parent="1">
          <mxGeometry x="-20" y="130" width="120" height="390" as="geometry" />
        </mxCell>
        <mxCell id="ZGRNINhNJlQhkateeScL-4" style="edgeStyle=orthogonalEdgeStyle;rounded=0;orthogonalLoop=1;jettySize=auto;html=1;" edge="1" parent="1" source="ZGRNINhNJlQhkateeScL-6">
          <mxGeometry relative="1" as="geometry">
            <mxPoint x="99.99999999999977" y="210" as="targetPoint" />
          </mxGeometry>
        </mxCell>
        <mxCell id="ZGRNINhNJlQhkateeScL-5" value="bind&lt;br&gt;Symbol(&#39;DatabaseConnection&#39;)" style="edgeLabel;html=1;align=center;verticalAlign=middle;resizable=0;points=[];labelBackgroundColor=#CDA2BE;" vertex="1" connectable="0" parent="ZGRNINhNJlQhkateeScL-4">
          <mxGeometry x="-0.0658" relative="1" as="geometry">
            <mxPoint as="offset" />
          </mxGeometry>
        </mxCell>
        <mxCell id="ZGRNINhNJlQhkateeScL-6" value="database.factory.ts" style="rounded=1;whiteSpace=wrap;html=1;fillColor=#d5e8d4;strokeColor=#82b366;" vertex="1" parent="1">
          <mxGeometry x="330" y="190" width="180" height="40" as="geometry" />
        </mxCell>
        <mxCell id="ZGRNINhNJlQhkateeScL-7" style="edgeStyle=orthogonalEdgeStyle;rounded=0;orthogonalLoop=1;jettySize=auto;html=1;exitX=0;exitY=0.5;exitDx=0;exitDy=0;" edge="1" parent="1" source="ZGRNINhNJlQhkateeScL-8">
          <mxGeometry relative="1" as="geometry">
            <mxPoint x="99.99999999999977" y="309.7142857142858" as="targetPoint" />
          </mxGeometry>
        </mxCell>
        <mxCell id="ZGRNINhNJlQhkateeScL-8" value="framework.factory.ts" style="rounded=1;whiteSpace=wrap;html=1;fillColor=#d5e8d4;strokeColor=#82b366;" vertex="1" parent="1">
          <mxGeometry x="330" y="290" width="180" height="40" as="geometry" />
        </mxCell>
        <mxCell id="ZGRNINhNJlQhkateeScL-9" style="edgeStyle=orthogonalEdgeStyle;rounded=0;orthogonalLoop=1;jettySize=auto;html=1;" edge="1" parent="1" source="ZGRNINhNJlQhkateeScL-11">
          <mxGeometry relative="1" as="geometry">
            <mxPoint x="99.99999999999977" y="400" as="targetPoint" />
            <Array as="points">
              <mxPoint x="220" y="400" />
              <mxPoint x="220" y="400" />
            </Array>
          </mxGeometry>
        </mxCell>
        <mxCell id="ZGRNINhNJlQhkateeScL-10" value="bind&lt;br&gt;Symbol(&#39;MemoryStorageConnection&#39;)" style="edgeLabel;html=1;align=center;verticalAlign=middle;resizable=0;points=[];labelBackgroundColor=#CDA2BE;" vertex="1" connectable="0" parent="ZGRNINhNJlQhkateeScL-9">
          <mxGeometry x="0.0832" y="-2" relative="1" as="geometry">
            <mxPoint x="14" as="offset" />
          </mxGeometry>
        </mxCell>
        <mxCell id="ZGRNINhNJlQhkateeScL-11" value="transport.factory.ts" style="rounded=1;whiteSpace=wrap;html=1;fillColor=#d5e8d4;strokeColor=#82b366;" vertex="1" parent="1">
          <mxGeometry x="330" y="380" width="180" height="40" as="geometry" />
        </mxCell>
        <mxCell id="ZGRNINhNJlQhkateeScL-12" value="bind&lt;br&gt;Symbol(&#39;ServerConnection&#39;)" style="edgeLabel;html=1;align=center;verticalAlign=middle;resizable=0;points=[];labelBackgroundColor=#CDA2BE;" vertex="1" connectable="0" parent="1">
          <mxGeometry x="219.99714285714265" y="230" as="geometry">
            <mxPoint x="3" y="82" as="offset" />
          </mxGeometry>
        </mxCell>
        <mxCell id="ZGRNINhNJlQhkateeScL-13" style="edgeStyle=orthogonalEdgeStyle;rounded=1;orthogonalLoop=1;jettySize=auto;html=1;entryX=1;entryY=0.5;entryDx=0;entryDy=0;fillColor=#d5e8d4;strokeColor=#82b366;" edge="1" parent="1" source="ZGRNINhNJlQhkateeScL-17" target="ZGRNINhNJlQhkateeScL-6">
          <mxGeometry relative="1" as="geometry">
            <Array as="points">
              <mxPoint x="550" y="310" />
              <mxPoint x="550" y="210" />
            </Array>
          </mxGeometry>
        </mxCell>
        <mxCell id="ZGRNINhNJlQhkateeScL-14" style="edgeStyle=orthogonalEdgeStyle;rounded=1;orthogonalLoop=1;jettySize=auto;html=1;entryX=1;entryY=0.5;entryDx=0;entryDy=0;fillColor=#d5e8d4;strokeColor=#82b366;" edge="1" parent="1" source="ZGRNINhNJlQhkateeScL-17" target="ZGRNINhNJlQhkateeScL-8">
          <mxGeometry relative="1" as="geometry" />
        </mxCell>
        <mxCell id="ZGRNINhNJlQhkateeScL-15" style="edgeStyle=orthogonalEdgeStyle;rounded=1;orthogonalLoop=1;jettySize=auto;html=1;entryX=1;entryY=0.5;entryDx=0;entryDy=0;fillColor=#d5e8d4;strokeColor=#82b366;" edge="1" parent="1" source="ZGRNINhNJlQhkateeScL-17" target="ZGRNINhNJlQhkateeScL-11">
          <mxGeometry relative="1" as="geometry">
            <Array as="points">
              <mxPoint x="550" y="310" />
              <mxPoint x="550" y="400" />
            </Array>
          </mxGeometry>
        </mxCell>
        <mxCell id="ZGRNINhNJlQhkateeScL-16" value="extends" style="edgeLabel;html=1;align=center;verticalAlign=middle;resizable=0;points=[];labelBackgroundColor=#CDA2BE;" vertex="1" connectable="0" parent="ZGRNINhNJlQhkateeScL-15">
          <mxGeometry x="-0.5656" y="-1" relative="1" as="geometry">
            <mxPoint as="offset" />
          </mxGeometry>
        </mxCell>
        <mxCell id="ZGRNINhNJlQhkateeScL-30" style="edgeStyle=orthogonalEdgeStyle;rounded=1;orthogonalLoop=1;jettySize=auto;html=1;entryX=1;entryY=0.5;entryDx=0;entryDy=0;fillColor=#d5e8d4;strokeColor=#82b366;" edge="1" parent="1" source="ZGRNINhNJlQhkateeScL-17" target="ZGRNINhNJlQhkateeScL-24">
          <mxGeometry relative="1" as="geometry">
            <Array as="points">
              <mxPoint x="550" y="310" />
              <mxPoint x="550" y="490" />
            </Array>
          </mxGeometry>
        </mxCell>
        <mxCell id="ZGRNINhNJlQhkateeScL-31" style="edgeStyle=orthogonalEdgeStyle;rounded=1;orthogonalLoop=1;jettySize=auto;html=1;entryX=1;entryY=0.5;entryDx=0;entryDy=0;fillColor=#d5e8d4;strokeColor=#82b366;" edge="1" parent="1" source="ZGRNINhNJlQhkateeScL-17" target="ZGRNINhNJlQhkateeScL-29">
          <mxGeometry relative="1" as="geometry">
            <Array as="points">
              <mxPoint x="550" y="310" />
              <mxPoint x="550" y="584" />
            </Array>
          </mxGeometry>
        </mxCell>
        <mxCell id="ZGRNINhNJlQhkateeScL-17" value="abstract.factory.ts" style="rounded=1;whiteSpace=wrap;html=1;fillColor=#d5e8d4;strokeColor=#82b366;" vertex="1" parent="1">
          <mxGeometry x="647" y="290" width="180" height="40" as="geometry" />
        </mxCell>
        <mxCell id="ZGRNINhNJlQhkateeScL-18" value="methods and properties" style="swimlane;whiteSpace=wrap;html=1;fillColor=#f8cecc;strokeColor=#b85450;rounded=1;" vertex="1" parent="1">
          <mxGeometry x="710" y="350" width="270" height="230" as="geometry" />
        </mxCell>
        <mxCell id="ZGRNINhNJlQhkateeScL-19" value="protected abstract factoryName" style="rounded=1;whiteSpace=wrap;html=1;fillColor=#fff2cc;strokeColor=#d6b656;" vertex="1" parent="ZGRNINhNJlQhkateeScL-18">
          <mxGeometry x="25" y="40" width="220" height="40" as="geometry" />
        </mxCell>
        <mxCell id="ZGRNINhNJlQhkateeScL-20" value="abstract async init(): Promise&amp;lt;void&amp;gt;" style="rounded=1;whiteSpace=wrap;html=1;fillColor=#fff2cc;strokeColor=#d6b656;" vertex="1" parent="ZGRNINhNJlQhkateeScL-18">
          <mxGeometry x="25" y="160" width="220" height="40" as="geometry" />
        </mxCell>
        <mxCell id="ZGRNINhNJlQhkateeScL-28" style="edgeStyle=orthogonalEdgeStyle;rounded=1;orthogonalLoop=1;jettySize=auto;html=1;fillColor=#fff2cc;strokeColor=#d6b656;dashed=1;" edge="1" parent="ZGRNINhNJlQhkateeScL-18" source="ZGRNINhNJlQhkateeScL-26">
          <mxGeometry relative="1" as="geometry">
            <mxPoint x="-40" y="-20" as="targetPoint" />
          </mxGeometry>
        </mxCell>
        <mxCell id="ZGRNINhNJlQhkateeScL-26" value="protected abstract loggerService" style="rounded=1;whiteSpace=wrap;html=1;fillColor=#fff2cc;strokeColor=#d6b656;" vertex="1" parent="ZGRNINhNJlQhkateeScL-18">
          <mxGeometry x="25" y="100" width="220" height="40" as="geometry" />
        </mxCell>
        <mxCell id="ZGRNINhNJlQhkateeScL-21" style="edgeStyle=orthogonalEdgeStyle;rounded=1;orthogonalLoop=1;jettySize=auto;html=1;exitX=0;exitY=0.5;exitDx=0;exitDy=0;fillColor=#fff2cc;strokeColor=#d6b656;dashed=1;" edge="1" parent="1" source="ZGRNINhNJlQhkateeScL-19">
          <mxGeometry relative="1" as="geometry">
            <mxPoint x="670" y="330" as="targetPoint" />
            <Array as="points">
              <mxPoint x="670" y="410" />
            </Array>
          </mxGeometry>
        </mxCell>
        <mxCell id="ZGRNINhNJlQhkateeScL-22" style="edgeStyle=orthogonalEdgeStyle;rounded=1;orthogonalLoop=1;jettySize=auto;html=1;exitX=0;exitY=0.5;exitDx=0;exitDy=0;fillColor=#fff2cc;strokeColor=#d6b656;dashed=1;" edge="1" parent="1" source="ZGRNINhNJlQhkateeScL-20" target="ZGRNINhNJlQhkateeScL-17">
          <mxGeometry relative="1" as="geometry">
            <mxPoint x="696" y="330" as="targetPoint" />
            <Array as="points">
              <mxPoint x="670" y="530" />
            </Array>
          </mxGeometry>
        </mxCell>
        <mxCell id="ZGRNINhNJlQhkateeScL-23" style="edgeStyle=orthogonalEdgeStyle;rounded=0;orthogonalLoop=1;jettySize=auto;html=1;" edge="1" parent="1" source="ZGRNINhNJlQhkateeScL-24">
          <mxGeometry relative="1" as="geometry">
            <mxPoint x="100.00000000000023" y="490" as="targetPoint" />
          </mxGeometry>
        </mxCell>
        <mxCell id="ZGRNINhNJlQhkateeScL-24" value="cloud-storage.factory.ts" style="rounded=1;whiteSpace=wrap;html=1;fillColor=#d5e8d4;strokeColor=#82b366;" vertex="1" parent="1">
          <mxGeometry x="330" y="470" width="180" height="40" as="geometry" />
        </mxCell>
        <mxCell id="ZGRNINhNJlQhkateeScL-25" value="bind&lt;br&gt;Symbol(&#39;{{ElementName}}Connection&#39;)" style="edgeLabel;html=1;align=center;verticalAlign=middle;resizable=0;points=[];labelBackgroundColor=#CDA2BE;" vertex="1" connectable="0" parent="1">
          <mxGeometry x="219.99461538461526" y="490.0000000000001" as="geometry" />
        </mxCell>
        <mxCell id="ZGRNINhNJlQhkateeScL-29" value="{{factory-name}}.factory.ts" style="rounded=1;whiteSpace=wrap;html=1;fillColor=#d5e8d4;strokeColor=#82b366;" vertex="1" parent="1">
          <mxGeometry x="330" y="564.5" width="180" height="40" as="geometry" />
        </mxCell>
      </root>
    </mxGraphModel>
  </diagram>
</mxfile>
